<?xml version="1.0" encoding="UTF-8"?>
<svg id="Layer_1" data-name="Layer 1" xmlns="http://www.w3.org/2000/svg" viewBox="0 0 196.42 196.07">
  <defs>
    <style>
      .cls-1 {
        fill:none;
      }
    </style>
  </defs>
  <path class="cls-1" d="M196.42,0v196.07H0V0h196.42ZM122.5,75.92c-12.06-10.3-27.05-13.94-42.65-10.73-1.63.54-1.51,5.05-1.77,6.64,6.79-1.25,12.48-1.24,19.17-.16,3.13.51,6.81,1.3,10.36,2.88,11.16,4.98,17.53,14.15,22.82,24.34.36.69.43,1.75.52,2.54.83.7,4.28-2.74,5.11-3.41-1.97-7.82-7.34-16.79-13.56-22.11ZM113.71,86.66c-10.59-9.2-22.63-10.57-36.01-7.94-1.9,18.5-4.16,37.2-5.24,55.8-.09,1.6-1.59,5.34.13,6.74,4,3.27,9.58-2.87,13.03-5.37,8.81-6.38,17.85-13.57,27.01-19.92l12.75-9.69c.21-.34-.57-3.52-.77-3.98-2.15-4.91-6.67-11.97-10.89-15.64Z"/>
  <path d="M113.71,86.66c4.22,3.67,8.74,10.73,10.89,15.64.2.46.98,3.64.77,3.98l-12.75,9.69c-9.16,6.34-18.2,13.54-27.01,19.92-3.46,2.5-9.03,8.64-13.03,5.37-1.72-1.4-.22-5.14-.13-6.74,1.08-18.6,3.34-37.3,5.24-55.8,13.39-2.63,25.42-1.27,36.01,7.94ZM84.03,93.07c.14.14,3.32,1.85,3.51,1.87.53.05,2.87-.87,3.41-1.25,5.17-3.7-1.12-11.87-6.11-7.57-1.65,1.43-2.41,5.29-.82,6.95ZM110.9,98.2c-4.45-4.98-12.54-1.16-11.27,5.67.72,3.88,6.8,6.37,9.83,4.2.3-.22,2.55-3.38,2.68-3.89.55-2.02.17-4.4-1.25-5.99ZM89.06,113.27c-3.73-2.87-7.81-2.43-10.1,1.9-1.3,2.46-.46,6.7,1.93,8.08,7.57,4.38,13.98-5.51,8.17-9.98Z"/>
  <path d="M122.5,75.92c6.23,5.32,11.6,14.29,13.56,22.11-.83.67-4.28,4.11-5.11,3.41-.09-.79-.17-1.85-.52-2.54-5.28-10.19-11.66-19.36-22.82-24.34-3.55-1.59-7.22-2.38-10.36-2.88-6.69-1.08-12.38-1.09-19.17.16.26-1.59.14-6.1,1.77-6.64,15.59-3.22,30.58.43,42.65,10.73Z"/>
  <path class="cls-1" d="M89.06,113.27c5.81,4.47-.61,14.36-8.17,9.98-2.39-1.38-3.23-5.63-1.93-8.08,2.29-4.32,6.37-4.76,10.1-1.9Z"/>
  <path class="cls-1" d="M110.9,98.2c1.42,1.59,1.8,3.96,1.25,5.99-.14.5-2.38,3.67-2.68,3.89-3.03,2.17-9.11-.32-9.83-4.2-1.28-6.84,6.81-10.65,11.27-5.67Z"/>
  <path class="cls-1" d="M84.03,93.07c-1.6-1.66-.84-5.52.82-6.95,4.99-4.3,11.28,3.87,6.11,7.57-.53.38-2.88,1.3-3.41,1.25-.2-.02-3.38-1.72-3.51-1.87Z"/>
</svg>