<?xml version="1.0" encoding="UTF-8"?>
<svg id="Layer_1" data-name="Layer 1" xmlns="http://www.w3.org/2000/svg" viewBox="0 0 745.12 438">
  <defs>
    <style>
      .cls-1, .cls-2 {
        fill: #000;
      }

      .cls-2 {
        stroke: #000;
        stroke-miterlimit: 10;
      }
    </style>
  </defs>
  <g>
    <path class="cls-1" d="M745.12,0v245.28h-339.12V0h339.12ZM556,54.96c.32-.02.64.02.96,0v-.96s.96,0,.96,0v-1.92s.96,0,.96,0v-1.2c1.29.24.78-.31,1.08-.71.2-.27.63-.17.77-.31.29-.28-.03-1.15,1.26-.9v-.96s.97,0,.97,0v-1.2s.94-.03.94-.03l.03-.67.94-.03.23-1.09,1.7-.1v-.96s1.2,0,1.2,0v-.96s1.2,0,1.2,0v-.96s1.68,0,1.68,0v-.96c.07-.07,1.63-.07,2-.23.31-.14,0-.6.31-.74.9-.4,1.66.3,2.15-1.16l2.73-.03v-.96s3.84,0,3.84,0v-.96h13.2v.96h3.84v.96s3.12,0,3.12,0v.95s1.89.3,1.89.3l.16.69,1.81.09.23,1.09h1.91s0,.97,0,.97h1.92s0,.95,0,.95c.85-.05,1.17.04,1.23.94l.93.03v.95s1.91.26,1.91.26v.95s.97,0,.97,0v.96s.96,0,.96,0v.96s.96,0,.96,0v.96s.96,0,.96,0v.96s.97.11.97.11l.23,1.09h.96s0,1.93,0,1.93h.96s0,.96,0,.96h.96s0,1.91,0,1.91l.97.11c.44.29-.18,1.31.89,1.13l.3,1.87h.95s0,2.17,0,2.17h.96s0,2.88,0,2.88h.96s0,3.84,0,3.84h.96v17.04h-.96s0,3.12,0,3.12h-.96s0,2.88,0,2.88h-.96s0,2.16,0,2.16h-.96c-.06.46.12,1.12-.03,1.53-.16.45-.74.29-.88.44-.17.19-.21,1.48-.3,1.86h-.95s0,1.21,0,1.21h-.96s0,.96,0,.96h-.96s0,1.92,0,1.92h-1.2c.24,1.3-.32.78-.71,1.08-.28.21-.17.67-.3.79-.18.17-1.49.22-1.86.3v.95s-.97,0-.97,0v.96c.06.06,1.6-.16,1.77-.23.31-.14,0-.6.31-.74.29-.13,1.68-.16,1.76-.24v-.95s1.21,0,1.21,0v-.96s1.92,0,1.92,0v-.96s.96,0,.96,0v-1.2s.96,0,.96,0v-.96s.96,0,.96,0v-.96s.95,0,.95,0c.08-.36.15-1.72.3-1.87.11-.11.52.05.7-.18.34-.46-.14-1.06,1.17-.81v-1.92s.96,0,.96,0v-2.16s.96,0,.96,0v-1.92s.96,0,.96,0v-1.2s.93-.03.93-.03l.42-.9h3.54s.42.9.42.9l.93.03v1.2s.96,0,.96,0c-.39,1.3.73.8.93,1.35.15.41-.03,1.07.03,1.53h.96s0,2.16,0,2.16h.95s.25,2.88.25,2.88h.96s0,4.08,0,4.08h.96v6.84l-.98.51c-.05.95.17,2.69-.22,3.54-.14.31-.6,0-.74.31-.13.29-.16,1.68-.24,1.76h-.95s0,1.93,0,1.93h-.96s0,1.2,0,1.2h-.96s0,.96,0,.96h-.96s0,.96,0,.96c-1.51-.25-.7.44-1.07.97-.16.23-.64.14-.79.29-.29.29.03,1.15-1.26.9v.96s-.97,0-.97,0v.96s-.96,0-.96,0v.96s-1.92,0-1.92,0v.96s-1.2,0-1.2,0v.95c-.08.08-1.48.11-1.76.24-.31.14,0,.6-.31.74-.33.15-1.51.09-1.72.28-.24.23.07,1.18-1.24.92l-.03.94h-.7v8.53l-1.2.36v-.96s-2.88,0-2.88,0v-.96s-2.16,0-2.16,0v-.96s-2.16,0-2.16,0v-.96s-2.88,0-2.88,0v-.96s-2.72-.23-2.72-.23l-.29-.75-3.55-.21-.4-.97h-3.84v-.96h-5.04v-.96h-6.84l-.36-.96h-13.92v.96h-6.96v.96h-4.08v.96h21.12v.96h6v.96h4.08v.96h3.84v.96s2.97.23,2.97.23l.28.75,2.74.23v.95s2.17,0,2.17,0v.96s2.88,0,2.88,0v.96s1.92,0,1.92,0v.96s1.94.1,1.94.1l.25.82.93.03v.95s2.16.25,2.16.25v.96s1.92,0,1.92,0v.96s1.68,0,1.68,0v.96s1.2,0,1.2,0v.96c.32.03.72-.09,1.02,0,.16.05,1.03.99,1.15,1.06.31.18.78.06.91.19.1.09-.02.48.09.6.26.28,1.2-.02.91,1.27h.72v-12.84c0-.17.37-.7.25-1.07h.95s0-1.22,0-1.22h.96s0-.96,0-.96h.96s0-.96,0-.96h1.92s0-.96,0-.96h1.2s0-.96,0-.96h.96s0-.95,0-.95l1.9-.26v-.95s.97,0,.97,0v-.96s.96,0,.96,0v-.96s.96,0,.96,0v-.96s1.2,0,1.2,0v-1.2s.96,0,.96,0c.02-.96-.35-1.91.93-1.95l.03-.93h.96s0-.96,0-.96h.96c.06-.46-.12-1.12.03-1.53.16-.45.74-.29.88-.44.17-.19.21-1.48.3-1.86h.95s0-2.17,0-2.17h.96s0-2.16,0-2.16h.96s0-3.84,0-3.84h.96v-8.88h-.96s0-3.12,0-3.12h-.96s0-2.88,0-2.88h-.96s0-1.2,0-1.2h-.95s-.24-1.77-.24-1.77l-.7-.17-.03-.94h-1.2s0-1.92,0-1.92h-.96s0-.96,0-.96h-.96s0-.96,0-.96h-.96s0-.95,0-.95l-.97-.11-.24-1.09h-1.67s0-.97,0-.97h-1.2s0-.96,0-.96h-.96s0-.95,0-.95l-1.88-.28c-.54-1.62.13-3.1-.04-4.77h.96s0-9.12,0-9.12c0-.04-.48.04-.72-.12-.09-.06-.46-1.88-.48-2.16-.09-1.16.06-2.41.02-3.59-1.49-.21-.81-1.88-1.01-2.98l-.9-.42-.03-2.73h-.96s0-1.92,0-1.92h-.96s0-1.92,0-1.92h-.96s0-1.91,0-1.91l-1.09-.24c.16-1.22-.71-.85-.83-1.13s-.16-1.68-.24-1.76h-.95s0-.97,0-.97h-.96s0-1.2,0-1.2h-.96s0-.96,0-.96h-.96s0-.96,0-.96h-.96s0-.96,0-.96h-.96s0-.96,0-.96h-1.2s0-.96,0-.96h-.96s0-.95,0-.95l-1.87-.3c.17-1.07-.84-.46-1.13-.89l-.11-.97h-1.91s0-.97,0-.97h-1.92s0-.96,0-.96h-2.88s0-.96,0-.96h-2.16s0-.96,0-.96l-3.71-.22-.26-.75-5.87-.22v-.96s-9.12,0-9.12,0v.96s-4.91.22-4.91.22l-.26.75-3.71.22v.96s-2.88,0-2.88,0v.96s-2.16,0-2.16,0v.96s-1.2,0-1.2,0v.96s-1.92,0-1.92,0l-.02.94-1.9.27v.96s-.96,0-.96,0v.96s-.96,0-.96,0v.96s-.96,0-.96,0v.96s-1.2,0-1.2,0l-.03.95-.67.03-.03.95h-1.2s0,1.2,0,1.2h-.96s-.1,1.7-.1,1.7l-.82.25-.03.93h-.96s0,1.92,0,1.92h-.96c.05.85-.04,1.19-.93,1.23l-.3,2.59-.94.02c-.02.72.03,1.44,0,2.16-.32.02-.64-.02-.96,0v1.92s.96,0,.96,0c.02-.64-.02-1.28,0-1.92ZM567.04,83.04c-.04-.43-.09-1.45-.23-1.77s-.6,0-.74-.31c-.13-.29-.16-1.68-.24-1.76h-.95s0-1.21,0-1.21h-.96s-.03-.93-.03-.93l-.82-.25-.1-1.7h-.96c.25-1.5-.43-.7-.96-1.07-.21-.15-.21-.59-.39-.83-.27-.37-.82-.25-.57-1.22h-1.2s0-.96,0-.96h-.96s0-.96,0-.96h-.96s0-.95,0-.95c-.37-.09-1.68-.13-1.86-.3-.13-.12-.03-.63-.28-.8-.26-.18-.79-.01-.94-.15-.11-.11.1-.55-.19-.68s-1.68-.16-1.76-.24v-.95s-1.93,0-1.93,0v-.96c-.62-.07-1.39.12-1.98,0-.08-.02-.96-.93-1.24-.97-.46-.06-2.68.12-2.77.02v-.96s-10.08,0-10.08,0v.96h-4.8v.96s-3.12,0-3.12,0v.96s-2.16,0-2.16,0v.95c-.08.08-1.48.11-1.76.24-.31.14,0,.6-.31.74-.29.13-1.68.16-1.76.24v.95s-1.93,0-1.93,0v.96s-1.2,0-1.2,0v.96s-1.68,0-1.68,0v.96s-1.2,0-1.2,0v1.2s-.96,0-.96,0v.96s-.96,0-.96,0v.96s-.96,0-.96,0v.96s-.95,0-.95,0l-.3,1.87c-1.07-.17-.46.84-.89,1.13l-.97.11v1.67s-.97,0-.97,0v1.92s-.96,0-.96,0v2.16s-.96,0-.96,0v2.16s-.96,0-.96,0l-.23,2.73-.75.29-.22,5.87h-.96v10.08h.96s.22,4.91.22,4.91l.75.29.26,2.71.7.17.23,2.73h.96s0,2.16,0,2.16h.96s0,1.92,0,1.92h.96s0,1.92,0,1.92h1.2c-.27,1.64.38.99.66,1.25s-.05,1.17,1.25.92l.04.92.82.25.1,1.7h.96s0,.95,0,.95c.37.08,1.68.13,1.86.3.11.11.05.49.18.66.21.27.62.17.77.32.29.28-.03,1.15,1.26.9v.96s1.69,0,1.69,0v.96s1.2,0,1.2,0v.96s1.92,0,1.92,0v.96s2.16,0,2.16,0v.96s2.74.22,2.74.22l.27.75,2.99.22v.96h5.64l.36.96h4.08l-.24,30h1.2s0-.96,0-.96h1.92s0-.95,0-.95l2.12-.29c-.12-1.17,1.66-.87,2.52-.9l.53-.95,1.77-.03v-.96s2.88,0,2.88,0v-.96s2.16,0,2.16,0v-.96s2.88,0,2.88,0v-.96s2.98-.22,2.98-.22l.15-.71,2.96-.26c-.05-1.61,3.72-.69,3.99-.97v-.96s4.08,0,4.08,0v-.96h5.76v-.96h8.16v-.96h12v.96h6.96v.96h4.08v.96h3.84v.96c.71.04,1.46-.06,2.16,0,.05.3-.06.64.01.95l1.55.26c.54.09.85-.91.46-.97-.69-.01-1.34-.18-2.02-.24-.04-.29.08-.62-.22-.85l-1.57-.09-.15-.7-2.13-.29v-.95s-2.17,0-2.17,0v-.96s-2.88,0-2.88,0v-.96s-3.84,0-3.84,0v-.96s-4.89-.23-4.89-.23l-.29-.75-7.66-.21-.26-.75h-11.98s-.26.75-.26.75l-8.6.21-.51.98h-5.64v.96h-4.08v.96h-3.84v.96h-4.08v.95c-.17.16-2.1.16-2.49.29-.35.12-.43,1.11-1.59.68v-25.92h-4.8v-.96h-5.04v-.96h-4.08v-.96s-1.77-.03-1.77-.03l-.53-.95c-.67,0-2,.04-2.58-.22-.31-.14,0-.6-.31-.74-.29-.13-1.68-.16-1.76-.24v-.95s-1.21,0-1.21,0v-.96s-1.92,0-1.92,0v-.96s-.96,0-.96,0v-.96s-.96,0-.96,0c.25-1.51-.44-.7-.97-1.07-.23-.16-.14-.64-.29-.79-.29-.29-1.15.03-.9-1.26h-.96s0-.97,0-.97h-.96s0-.96,0-.96h-.96s0-1.2,0-1.2h-.96s0-1.92,0-1.92h-1.2s0-1.92,0-1.92h-.96s0-2.16,0-2.16h-.96s0-3.84,0-3.84h-.96v-13.92h.96v-3.72l.93-.39.06-1.74.95-.53-.02-1.78h1.2s0-1.92,0-1.92h.96s0-1.2,0-1.2h.96s0-1.92,0-1.92h.96s0-.96,0-.96h.96s0-.96,0-.96h.96s.23-1.09.23-1.09l.97-.11v-.96s.97,0,.97,0v-.96s.96,0,.96,0v-.96s1.92,0,1.92,0v-.96s1.2,0,1.2,0v-.96s1.92,0,1.92,0v-.95s2.14-.29,2.14-.29l.16-.7,2.74-.22v-.96s6.96,0,6.96,0v-.96s2.9.11,2.9.11l.22.85h5.04v.96c1.14.1,2.82-.48,3.01.97l2.73.23v.95s1.93,0,1.93,0v.96s1.2,0,1.2,0v.96s1.92,0,1.92,0v.96s1.2,0,1.2,0v.96s.96,0,.96,0v.96s.96,0,.96,0v1.2s.96,0,.96,0v.96s1.2,0,1.2,0v.96s.96,0,.96,0v.96s.96,0,.96,0c-.38,1.46,1.24.59.97,2.15.31.05.63,0,.95,0,.06.63-.04,1.29,0,1.92h.96s0,.96,0,.96h.96s0-1.92,0-1.92h-.96s0-.96,0-.96c-.32-.01-.64.02-.96,0ZM562.96,132h-2.88v.96h2.88v-.96ZM536.08,208.08h-5.04v-.96s-1.2,0-1.2,0v-.96s-.96,0-.96,0v-.96s-.72,0-.72,0v2.74s.96.14.96.14v1.92s.96,0,.96,0v1.92s.96,0,.96,0v.96s1.92,0,1.92,0v.95s2.99.23,2.99.23l.26.75h4.78s.26-.75.26-.75l3.82-.21c.16-1.35,1.94-.9,3.01-.98v-.96s1.92,0,1.92,0v-.96s2.88,0,2.88,0v-.96s1.2,0,1.2,0v-.95c.08-.08,1.48-.11,1.76-.24.31-.14,0-.6.31-.74.29-.13,1.68-.16,1.76-.24v-.95s2.17,0,2.17,0v-.96s1.92,0,1.92,0v-.96s1.92,0,1.92,0v-.96s2.16,0,2.16,0v-.95s2.75-.23,2.75-.23l.29-.75,2.58-.21.51-.98h3.72v-.96h4.08v-.96s-.96,0-.96,0v-.96s-.96,0-.96,0v-.96s-1.2,0-1.2,0v-.96s-1.92,0-1.92,0v-.96s-1.92,0-1.92,0v-.96c-3.32-.17-6.62-.4-9.94-.01-.19,1.47-1.97.86-3.02.97v.96s-2.16,0-2.16,0v.96s-1.92,0-1.92,0v.96s-1.92,0-1.92,0v.95c-1.24.14-1.81-.03-2.31,1.18l-1.77.03v.96s-.96,0-.96,0v.96s-1.92,0-1.92,0v.96s-2.16,0-2.16,0v.96s-1.92,0-1.92,0v.95c-.94.2-1.93-.13-2.07.98l-2,.24v.95s-2.89,0-2.89,0v.96ZM592,199.92h4.08v.96h3.72l.51.98,2.58.21.29.75,2.74.23v.95s2.17,0,2.17,0v.96s1.92,0,1.92,0v.96s1.92,0,1.92,0v.96s2.16,0,2.16,0v.95c.08.08,1.48.11,1.76.24.31.14,0,.6.31.74.29.13,1.68.16,1.76.24v.95s1.21,0,1.21,0v.96s1.79-.02,1.79-.02l.29.75,2.73.23v.96c1.07.08,2.85-.37,3.01.98l3.82.21.26.75h4.78s.26-.75.26-.75l2.98-.23v-.95s1.93,0,1.93,0v-.96s.96,0,.96,0v-1.92s.96,0,.96,0v-1.92s.96,0,.96,0l.24-2.76c-1.22-.54-.82.25-1.08.59-.33.42-1.14-.1-.84,1.21h-1.2s0,.96,0,.96h-5.04v-.96s-2.88,0-2.88,0v-.96c-.07-.07-1.63-.07-2-.23-.31-.14,0-.6-.31-.74-.29-.13-1.68-.16-1.76-.24v-.95s-2.17,0-2.17,0v-.96s-1.92,0-1.92,0v-.96s-1.92,0-1.92,0v-.95c-.09-.08-1.48-.11-1.76-.24s-.07-.57-.19-.68c-.15-.14-.68.02-.94-.15-.24-.17-.15-.68-.28-.8-.18-.17-1.49-.22-1.86-.3v-.95s-1.93,0-1.93,0v-.96s-1.92,0-1.92,0v-.96s-2.16,0-2.16,0v-.96s-2.88,0-2.88,0v-.96s-10.08,0-10.08,0v.96s-1.92,0-1.92,0v.96s-1.92,0-1.92,0v.96s-1.2,0-1.2,0v.96s-.96,0-.96,0v.96s-.96,0-.96,0v.96Z"/>
    <path d="M556,54.96c.02-.72-.02-1.44,0-2.16l.94-.02.3-2.59c.9-.04.98-.38.93-1.22h.96s0-1.93,0-1.93h.96s.03-.93.03-.93l.82-.25.1-1.7h.96s0-1.2,0-1.2h1.2s.03-.94.03-.94l.67-.03.03-.95h1.2s0-.96,0-.96h.96s0-.96,0-.96h.96s0-.96,0-.96h.96s0-.96,0-.96l1.9-.27.02-.94h1.92s0-.96,0-.96h1.2s0-.96,0-.96h2.16s0-.96,0-.96h2.88s0-.96,0-.96l3.71-.22.26-.75,4.91-.22v-.96s9.12,0,9.12,0v.96s5.87.22,5.87.22l.26.75,3.71.22v.96s2.16,0,2.16,0v.96s2.88,0,2.88,0v.96s1.92,0,1.92,0v.96s1.91,0,1.91,0l.11.97c.29.44,1.31-.18,1.13.89l1.87.3v.95s.97,0,.97,0v.96s1.2,0,1.2,0v.96s.96,0,.96,0v.96s.96,0,.96,0v.96s.96,0,.96,0v.96s.96,0,.96,0v1.2s.96,0,.96,0v.96s.95,0,.95,0c.08.08.11,1.47.24,1.76s.99-.09.83,1.13l1.09.24v1.91s.97,0,.97,0v1.92s.96,0,.96,0v1.92s.96,0,.96,0l.03,2.73.9.42c.2,1.1-.48,2.77,1.01,2.98.04,1.17-.11,2.43-.02,3.59.02.28.39,2.1.48,2.16.24.16.72.08.72.12v9.12h-.96c.17,1.66-.5,3.14.04,4.77l1.88.28v.95s.97,0,.97,0v.96s1.2,0,1.2,0v.96s1.67,0,1.67,0l.24,1.09.97.11v.96s.97,0,.97,0v.96s.96,0,.96,0v.96s.96,0,.96,0v1.92s1.2,0,1.2,0l.03.94.7.17.24,1.76h.95s0,1.21,0,1.21h.96s0,2.88,0,2.88h.96s0,3.12,0,3.12h.96s0,8.88,0,8.88h-.96v3.84h-.96s0,2.16,0,2.16h-.96s0,2.16,0,2.16h-.95c-.09.39-.13,1.68-.3,1.87-.14.15-.72-.01-.88.44-.15.41.03,1.07-.03,1.53h-.96s0,.96,0,.96h-.96s-.03.93-.03.93c-1.28.04-.91.99-.93,1.95h-.96s0,1.2,0,1.2h-1.2s0,.96,0,.96h-.96s0,.96,0,.96h-.96s0,.96,0,.96h-.96s0,.95,0,.95l-1.9.26v.95s-.97,0-.97,0v.96s-1.2,0-1.2,0v.96s-1.92,0-1.92,0v.96s-.96,0-.96,0v.96s-.96,0-.96,0v1.2s-.94.01-.94.01c.11.36-.25.89-.25,1.07v12.84h-.72c.29-1.28-.65-.99-.91-1.27-.11-.12,0-.51-.09-.6-.13-.12-.6,0-.91-.19-.12-.07-.99-1.01-1.15-1.06-.31-.09-.7.02-1.03,0v-.96s-1.2,0-1.2,0v-.96s-1.68,0-1.68,0v-.96s-1.92,0-1.92,0v-.96s-2.15-.25-2.15-.25v-.95s-.94-.03-.94-.03l-.25-.82-1.94-.1v-.96s-1.92,0-1.92,0v-.96s-2.88,0-2.88,0v-.96s-2.16,0-2.16,0v-.95s-2.75-.23-2.75-.23l-.28-.75-2.97-.23v-.96s-3.84,0-3.84,0v-.96h-4.08v-.96h-6v-.96h-21.12v-.96h4.08v-.96h6.96v-.96h13.92l.36.96h6.84v.96h5.04v.96h3.84l.4.97,3.55.21.29.75,2.73.23v.96s2.88,0,2.88,0v.96s2.16,0,2.16,0v.96s2.16,0,2.16,0v.96s2.88,0,2.88,0v.96s1.2-.36,1.2-.36v-8.52h.7s.03-.95.03-.95c1.31.26,1-.69,1.24-.92.21-.19,1.38-.13,1.72-.28.31-.14,0-.6.31-.74.29-.13,1.68-.16,1.76-.24v-.95s1.21,0,1.21,0v-.96s1.92,0,1.92,0v-.96s.96,0,.96,0v-.96s.96,0,.96,0v-.96c1.29.24.97-.61,1.26-.9.15-.15.63-.06.79-.29.37-.53-.43-1.22,1.07-.97v-.96s.96,0,.96,0v-.96s.96,0,.96,0v-1.2s.96,0,.96,0v-1.92s.95,0,.95,0c.08-.08.11-1.47.24-1.76.14-.31.6,0,.74-.31.38-.85.17-2.58.22-3.54l.98-.51v-6.84h-.96v-4.08h-.96s-.25-2.87-.25-2.87h-.95s0-2.17,0-2.17h-.96c-.06-.46.12-1.12-.03-1.53-.19-.55-1.31-.05-.93-1.35h-.96s0-1.2,0-1.2l-.93-.03-.42-.9h-3.54s-.42.9-.42.9l-.93.03v1.2s-.96,0-.96,0v1.92s-.96,0-.96,0v2.16s-.96,0-.96,0v1.92c-1.31-.24-.83.36-1.17.81-.17.23-.59.07-.7.18-.15.15-.22,1.51-.3,1.87h-.95s0,.97,0,.97h-.96s0,.96,0,.96h-.96s0,1.2,0,1.2h-.96s0,.96,0,.96h-1.92s0,.96,0,.96h-1.2s0,.95,0,.95c-.08.08-1.47.11-1.76.24-.31.14,0,.6-.31.74-.17.07-1.7.3-1.76.23v-.96s.96,0,.96,0v-.95c.38-.09,1.69-.13,1.87-.3.12-.12.02-.57.3-.79.39-.3.95.21.71-1.08h1.2s0-1.92,0-1.92h.96s0-.96,0-.96h.96s0-1.2,0-1.2h.95c.09-.39.13-1.68.3-1.87.14-.15.72.01.88-.44.15-.41-.03-1.07.03-1.53h.96s0-2.16,0-2.16h.96s0-2.88,0-2.88h.96s0-3.12,0-3.12h.96s0-17.04,0-17.04h-.96v-3.84h-.96s0-2.88,0-2.88h-.96s0-2.16,0-2.16h-.95s-.3-1.88-.3-1.88c-1.07.17-.46-.84-.89-1.13l-.97-.11v-1.91s-.97,0-.97,0v-.96s-.96,0-.96,0v-1.92s-.95,0-.95,0l-.23-1.09-.97-.11v-.96s-.97,0-.97,0v-.96s-.96,0-.96,0v-.96s-.96,0-.96,0v-.96s-.96,0-.96,0v-.95s-1.91-.26-1.91-.26v-.95s-.94-.03-.94-.03c-.05-.9-.38-.98-1.23-.94v-.96s-1.93,0-1.93,0v-.96s-1.91,0-1.91,0l-.23-1.09-1.81-.09-.16-.69-1.88-.3v-.95s-3.13,0-3.13,0v-.96s-3.84,0-3.84,0v-.96h-13.2v.96h-3.84v.96s-2.73.03-2.73.03c-.49,1.47-1.25.76-2.15,1.16-.31.14,0,.6-.31.74-.37.17-1.93.16-2,.23v.96s-1.68,0-1.68,0v.96s-1.2,0-1.2,0v.96s-1.2,0-1.2,0v.96s-1.7.1-1.7.1l-.23,1.09-.94.03-.03.67-.95.03v1.2s-.96,0-.96,0v.96c-1.29-.25-.97.62-1.26.9-.15.14-.57.05-.77.31-.3.4.21.95-1.09.71v1.2s-.96,0-.96,0v1.92s-.96,0-.96,0v.96c-.31.01-.64-.02-.96,0-.02.64.02,1.28,0,1.92h-.96s0-1.92,0-1.92c.32-.01.64.02.96,0Z"/>
    <path d="M615.04,158.88c-.7-.06-1.45.04-2.16,0v-.96s-3.84,0-3.84,0v-.96h-4.08v-.96h-6.96v-.96h-12v.96h-8.16v.96h-5.76v.96h-4.08v.96c-.27.28-4.03-.64-3.99.97l-2.96.26-.15.71-2.98.22v.96s-2.88,0-2.88,0v.96s-2.16,0-2.16,0v.96s-2.88,0-2.88,0v.96s-1.77.03-1.77.03l-.53.95c-.86.03-2.64-.27-2.52.9l-2.12.29v.95s-1.93,0-1.93,0v.96s-1.2,0-1.2,0l.24-30h-4.08l-.36-.96h-5.64v-.96s-2.99-.22-2.99-.22l-.27-.75-2.74-.22v-.96s-2.16,0-2.16,0v-.96s-1.92,0-1.92,0v-.96s-1.2,0-1.2,0v-.96s-1.68,0-1.68,0v-.96c-1.29.25-.98-.62-1.26-.9-.14-.14-.56-.04-.77-.32-.13-.17-.07-.55-.18-.66-.18-.17-1.48-.22-1.86-.3v-.95s-.97,0-.97,0l-.1-1.7-.82-.25-.04-.92c-1.3.25-.98-.67-1.25-.92s-.93.39-.66-1.25h-1.2s0-1.92,0-1.92h-.96s0-1.92,0-1.92h-.96s0-2.16,0-2.16h-.96s-.23-2.72-.23-2.72l-.7-.17-.26-2.71-.75-.29-.22-4.91h-.96v-10.08h.96s.22-5.87.22-5.87l.75-.29.23-2.73h.96s0-2.16,0-2.16h.96s0-2.16,0-2.16h.96s0-1.92,0-1.92h.96s0-1.67,0-1.67l.97-.11c.44-.29-.18-1.31.89-1.13l.3-1.87h.95s0-.97,0-.97h.96s0-.96,0-.96h.96s0-.96,0-.96h.96s0-1.2,0-1.2h1.2s0-.96,0-.96h1.68s0-.96,0-.96h1.2s0-.96,0-.96h1.92s0-.95,0-.95c.08-.08,1.47-.11,1.76-.24.31-.14,0-.6.31-.74.29-.13,1.68-.16,1.76-.24v-.95s2.17,0,2.17,0v-.96s3.12,0,3.12,0v-.96s4.8,0,4.8,0v-.96h10.08v.96c.1.1,2.31-.08,2.77-.02.28.04,1.17.95,1.24.97.59.13,1.36-.06,1.99,0v.96s1.92,0,1.92,0v.95c.09.08,1.48.11,1.76.24s.07.57.19.68c.15.14.68-.02.94.15.24.17.15.68.28.8.18.17,1.49.22,1.86.3v.95s.97,0,.97,0v.96s.96,0,.96,0v.96s1.2,0,1.2,0c-.25.97.29.85.57,1.22.18.24.18.68.39.83.53.37,1.21-.43.96,1.07h.96s.1,1.7.1,1.7l.82.25.03.93h.96s0,1.2,0,1.2h.95c.08.08.11,1.48.24,1.76.14.31.6,0,.74.31s.19,1.33.23,1.77c.32.02.64-.02.96,0v.96s.96,0,.96,0v1.92s-.96,0-.96,0v-.96s-.96,0-.96,0c-.04-.63.06-1.29,0-1.92-.32-.02-.64.04-.95,0,.27-1.57-1.34-.69-.97-2.15h-.96s0-.96,0-.96h-.96s0-.96,0-.96h-1.2s0-.96,0-.96h-.96s0-1.2,0-1.2h-.96s0-.96,0-.96h-.96s0-.96,0-.96h-1.2s0-.96,0-.96h-1.92s0-.96,0-.96h-1.2s0-.96,0-.96h-1.92s0-.95,0-.95l-2.73-.23c-.19-1.45-1.87-.87-3.02-.97v-.96s-5.04,0-5.04,0l-.22-.85-2.9-.11v.96s-6.96,0-6.96,0v.96s-2.74.22-2.74.22l-.16.7-2.13.29v.95s-1.93,0-1.93,0v.96s-1.2,0-1.2,0v.96s-1.92,0-1.92,0v.96s-.96,0-.96,0v.96s-.96,0-.96,0v.96s-.97.11-.97.11l-.23,1.09h-.96s0,.97,0,.97h-.96s0,.96,0,.96h-.96s0,1.92,0,1.92h-.96s0,1.2,0,1.2h-.96s0,1.92,0,1.92h-1.2s.02,1.77.02,1.77l-.95.53-.06,1.74-.93.39v3.72h-.96v13.92h.96v3.84h.96s0,2.16,0,2.16h.96s0,1.92,0,1.92h1.2s0,1.92,0,1.92h.96s0,1.2,0,1.2h.96s0,.96,0,.96h.96s0,.96,0,.96h.96c-.24,1.29.61.97.9,1.26.15.15.06.63.29.79.53.37,1.22-.43.97,1.07h.96s0,.96,0,.96h.96s0,.96,0,.96h1.92s0,.96,0,.96h1.2s0,.95,0,.95c.08.08,1.47.11,1.76.24.31.14,0,.6.31.74.58.26,1.91.21,2.58.22l.53.95,1.77.03v.96s4.08,0,4.08,0v.96h5.04v.96h4.8v25.92c1.16.43,1.24-.56,1.59-.68.39-.13,2.32-.12,2.48-.29v-.95h4.09v-.96h3.84v-.96h4.08v-.96h5.64l.51-.98,8.6-.21.26-.75h11.98s.26.75.26.75l7.66.21.29.75,4.89.23v.96s3.84,0,3.84,0v.96s2.88,0,2.88,0v.96s2.16,0,2.16,0v.95s2.14.29,2.14.29l.15.7,1.57.09c.3.23.18.57.22.85.68.06,1.33.23,2.02.24.4.06.08,1.05-.46.97l-1.55-.26c-.08-.3.03-.65-.01-.95Z"/>
    <path d="M536.08,208.08v-.96s2.88,0,2.88,0v-.95s2.01-.24,2.01-.24c.13-1.11,1.13-.78,2.06-.98v-.95s1.93,0,1.93,0v-.96s2.16,0,2.16,0v-.96s1.92,0,1.92,0v-.96s.96,0,.96,0v-.96s1.77-.03,1.77-.03c.5-1.21,1.06-1.04,2.3-1.18v-.95s1.93,0,1.93,0v-.96s1.92,0,1.92,0v-.96s2.16,0,2.16,0v-.96c1.04-.11,2.82.5,3.01-.97,3.32-.39,6.62-.16,9.95.01v.96s1.92,0,1.92,0v.96s1.92,0,1.92,0v.96s1.2,0,1.2,0v.96s.96,0,.96,0v.96s.96,0,.96,0v.96h-4.08v.96h-3.72l-.51.98-2.58.21-.29.75-2.74.23v.95s-2.17,0-2.17,0v.96s-1.92,0-1.92,0v.96s-1.92,0-1.92,0v.96s-2.16,0-2.16,0v.95c-.08.08-1.48.11-1.76.24-.31.14,0,.6-.31.74-.29.13-1.68.16-1.76.24v.95s-1.21,0-1.21,0v.96s-2.88,0-2.88,0v.96s-1.92,0-1.92,0v.96c-1.07.08-2.85-.37-3.01.98l-3.82.21-.26.75h-4.78s-.26-.75-.26-.75l-2.98-.23v-.95s-1.93,0-1.93,0v-.96s-.96,0-.96,0v-1.92s-.96,0-.96,0v-1.92s-.96-.14-.96-.14v-2.74s.72,0,.72,0v.96s.96,0,.96,0v.96s1.2,0,1.2,0v.96s5.04,0,5.04,0Z"/>
    <path d="M592,199.92v-.96s.96,0,.96,0v-.96s.96,0,.96,0v-.96s1.2,0,1.2,0v-.96s1.92,0,1.92,0v-.96s1.92,0,1.92,0v-.96s10.08,0,10.08,0v.96s2.88,0,2.88,0v.96s2.16,0,2.16,0v.96s1.92,0,1.92,0v.96s1.92,0,1.92,0v.95c.38.09,1.69.13,1.87.3.13.12.03.63.28.8.26.18.79.01.94.15.11.11-.1.55.19.68s1.68.16,1.76.24v.95s1.93,0,1.93,0v.96s1.92,0,1.92,0v.96s2.16,0,2.16,0v.95c.08.08,1.48.11,1.76.24.31.14,0,.6.31.74.37.17,1.93.16,2,.23v.96s2.88,0,2.88,0v.96s5.04,0,5.04,0v-.96s1.2,0,1.2,0c-.3-1.31.51-.79.84-1.21.27-.34-.13-1.13,1.08-.59l-.24,2.76h-.96s0,1.92,0,1.92h-.96s0,1.92,0,1.92h-.96s0,.96,0,.96h-1.92s0,.95,0,.95l-2.98.23-.26.75h-4.78s-.26-.75-.26-.75l-3.82-.21c-.16-1.35-1.94-.9-3.01-.98v-.96s-2.72-.23-2.72-.23l-.29-.75-1.79.02v-.96s-1.2,0-1.2,0v-.95c-.08-.08-1.48-.11-1.76-.24-.31-.14,0-.6-.31-.74-.29-.13-1.68-.16-1.76-.24v-.95s-2.17,0-2.17,0v-.96s-1.92,0-1.92,0v-.96s-1.92,0-1.92,0v-.96s-2.16,0-2.16,0v-.95s-2.75-.23-2.75-.23l-.29-.75-2.58-.21-.51-.98h-3.72v-.96h-4.08Z"/>
    <rect x="560.08" y="132" width="2.88" height=".96"/>
  </g>
  <g>
    <path class="cls-1" d="M90,348v90H0v-90h90ZM44.69,357.16c-1.5.34-2.39,1.91-2.67,3.37-1.66,8.68,1.35,21.58-.23,30.77-3.04,5.17-22.89,20.6-22.77,25.23.11,4.2,13.89,10.39,17.73,11.22,41.14,8.96,60.62-46.92,25.77-65.77-3.59-1.94-14.24-5.64-17.83-4.82Z"/>
    <path d="M44.69,357.16c3.59-.82,14.24,2.88,17.83,4.82,34.85,18.85,15.37,74.73-25.77,65.77-3.84-.84-17.63-7.02-17.73-11.22-.12-4.62,19.74-20.06,22.77-25.23,1.58-9.18-1.42-22.08.23-30.77.28-1.46,1.16-3.03,2.67-3.37ZM62.99,371c2.32-2.33-12.66-8.49-14.99-7-.56,3.51.45,5.35,2.94,7.62-3.69,4.31-3.15,7.93-2.93,13.37l7.54-6.98c.54-1.22-3.25-4.81-.29-7.76,2.83-2.09,5.12-.86,7.74.75ZM73.99,390c.31-5.39-2.32-10.8-5.52-15-4.15.53-4.96,6.29-6.93,8.06s-6.86,2.99-8.55,6.45c2.75.52,7.7,1.05,10.3.48.82-.18.82-2.84,4.2-2.86,3.73-.02,2.83,3.68,6.49,2.88ZM73.99,396c-2.26-.65-3.26,2.7-4.63,2.94-1.52.26-2.55-2.47-4.89-2.92-3.35-.65-8.08.01-11.48.48,4.52,7.25,6.23.9,11.74,3.76,1.95,2.61,1.02,4.74-.48,7.26l4.21,3.49c3.2-4.2,5.83-9.61,5.52-15ZM42,422v-21c-7.93,3.96-1.42,6.29-4.25,11.75-2.61,1.95-4.74,1.02-7.26-.48l-3.49,4.21c4.2,3.2,9.61,5.83,15,5.52ZM48,421.99c5.39.32,10.8-2.32,15-5.52-3.54-7.12-11.18-8.2-14.51-15.47l-.39,9.89c4.59-.68,7.84,4.76,4.66,7.87-1.61,1.58-5.45-.09-4.76,3.23Z"/>
    <path class="cls-1" d="M73.99,390c-3.66.8-2.76-2.9-6.49-2.88-3.38.02-3.38,2.68-4.2,2.86-2.59.58-7.54.05-10.3-.48,1.69-3.46,6.64-4.74,8.55-6.45s2.78-7.53,6.93-8.06c3.2,4.2,5.83,9.61,5.52,15Z"/>
    <path class="cls-1" d="M42,422c-5.39.3-10.8-2.32-15-5.52l3.49-4.21c2.52,1.5,4.65,2.44,7.26.48,2.83-5.46-3.68-7.79,4.25-11.75v21Z"/>
    <path class="cls-1" d="M48,421.99c-.7-3.32,3.14-1.66,4.76-3.23,3.18-3.1-.07-8.54-4.66-7.87l.39-9.89c3.33,7.27,10.97,8.36,14.51,15.47-4.2,3.19-9.61,5.83-15,5.52Z"/>
    <path class="cls-1" d="M62.99,371c-2.62-1.61-4.9-2.84-7.74-.75-2.96,2.95.84,6.54.29,7.76l-7.54,6.98c-.22-5.44-.76-9.06,2.93-13.37-2.49-2.27-3.5-4.12-2.94-7.62,2.32-1.49,17.31,4.67,14.99,7Z"/>
    <path class="cls-1" d="M73.99,396c.31,5.39-2.32,10.8-5.52,15l-4.21-3.49c1.5-2.52,2.44-4.65.48-7.26-5.51-2.86-7.22,3.49-11.74-3.76,3.4-.46,8.13-1.13,11.48-.48,2.33.46,3.37,3.18,4.89,2.92,1.37-.23,2.36-3.59,4.63-2.94Z"/>
  </g>
  <circle class="cls-2" cx="17" cy="409" r="1.5"/>
  <circle class="cls-2" cx="11" cy="392" r="1.5"/>
  <circle class="cls-2" cx="17" cy="374" r="1.5"/>
  <circle class="cls-2" cx="31" cy="362" r="1.5"/>
</svg>